<svg width="414" height="190" viewBox="0 0 414 190" fill="none" xmlns="http://www.w3.org/2000/svg">
<g filter="url(#filter0_d_44_3119)">
<mask id="path-1-inside-1_44_3119" fill="white">
<path fill-rule="evenodd" clip-rule="evenodd" d="M24 34C24 29.5817 27.5817 26 32 26H381C385.418 26 389 29.5817 389 34V70.4761C388.646 70.4505 388.29 70.4375 387.931 70.4375C378.5 70.4375 370.854 79.3918 370.854 90.4375C370.854 101.483 378.5 110.438 387.931 110.438C388.29 110.438 388.646 110.425 389 110.399V148C389 152.418 385.418 156 381 156H32C27.5817 156 24 152.418 24 148V110.438C33.4299 110.436 41.0739 101.482 41.0739 90.4375C41.0739 79.3927 33.4299 70.4389 24 70.4375V34Z"/>
</mask>
<path fill-rule="evenodd" clip-rule="evenodd" d="M24 34C24 29.5817 27.5817 26 32 26H381C385.418 26 389 29.5817 389 34V70.4761C388.646 70.4505 388.29 70.4375 387.931 70.4375C378.5 70.4375 370.854 79.3918 370.854 90.4375C370.854 101.483 378.5 110.438 387.931 110.438C388.29 110.438 388.646 110.425 389 110.399V148C389 152.418 385.418 156 381 156H32C27.5817 156 24 152.418 24 148V110.438C33.4299 110.436 41.0739 101.482 41.0739 90.4375C41.0739 79.3927 33.4299 70.4389 24 70.4375V34Z" fill="#F08006" fill-opacity="0.1" shape-rendering="crispEdges"/>
<path d="M389 70.4761L388.928 71.4735L390 71.5511V70.4761H389ZM389 110.399H390V109.324L388.928 109.402L389 110.399ZM24 110.438L23.9999 109.438L23 109.438V110.438H24ZM24 70.4375H23V71.4374L23.9999 71.4375L24 70.4375ZM32 25C27.0294 25 23 29.0294 23 34H25C25 30.134 28.134 27 32 27V25ZM381 25H32V27H381V25ZM390 34C390 29.0294 385.971 25 381 25V27C384.866 27 388 30.134 388 34H390ZM390 70.4761V34H388V70.4761H390ZM387.931 71.4375C388.266 71.4375 388.598 71.4496 388.928 71.4735L389.072 69.4787C388.694 69.4514 388.314 69.4375 387.931 69.4375V71.4375ZM371.854 90.4375C371.854 79.79 379.194 71.4375 387.931 71.4375V69.4375C377.805 69.4375 369.854 78.9936 369.854 90.4375H371.854ZM387.931 109.438C379.194 109.438 371.854 101.085 371.854 90.4375H369.854C369.854 101.881 377.805 111.438 387.931 111.438V109.438ZM388.928 109.402C388.598 109.425 388.266 109.438 387.931 109.438V111.438C388.314 111.438 388.695 111.424 389.072 111.396L388.928 109.402ZM390 148V110.399H388V148H390ZM381 157C385.971 157 390 152.971 390 148H388C388 151.866 384.866 155 381 155V157ZM32 157H381V155H32V157ZM23 148C23 152.971 27.0294 157 32 157V155C28.134 155 25 151.866 25 148H23ZM23 110.438V148H25V110.438H23ZM40.0739 90.4375C40.0739 101.084 32.7351 109.436 23.9999 109.438L24.0001 111.438C34.1246 111.436 42.0739 101.881 42.0739 90.4375H40.0739ZM23.9999 71.4375C32.7351 71.4388 40.0739 79.7908 40.0739 90.4375H42.0739C42.0739 78.9945 34.1246 69.439 24.0001 69.4375L23.9999 71.4375ZM23 34V70.4375H25V34H23Z" fill="#F08006" fill-opacity="0.15" mask="url(#path-1-inside-1_44_3119)"/>
</g>
<defs>
<filter id="filter0_d_44_3119" x="-2" y="0" width="425" height="190" filterUnits="userSpaceOnUse" color-interpolation-filters="sRGB">
<feFlood flood-opacity="0" result="BackgroundImageFix"/>
<feColorMatrix in="SourceAlpha" type="matrix" values="0 0 0 0 0 0 0 0 0 0 0 0 0 0 0 0 0 0 127 0" result="hardAlpha"/>
<feOffset dx="4" dy="4"/>
<feGaussianBlur stdDeviation="15"/>
<feComposite in2="hardAlpha" operator="out"/>
<feColorMatrix type="matrix" values="0 0 0 0 0 0 0 0 0 0 0 0 0 0 0 0 0 0 0.06 0"/>
<feBlend mode="normal" in2="BackgroundImageFix" result="effect1_dropShadow_44_3119"/>
<feBlend mode="normal" in="SourceGraphic" in2="effect1_dropShadow_44_3119" result="shape"/>
</filter>
</defs>
</svg>
