<svg width="327" height="176" viewBox="0 0 327 176" fill="none" xmlns="http://www.w3.org/2000/svg">
<g clip-path="url(#clip0_14_6302)">
<rect width="327" height="176" rx="20" fill="#B42132"/>
<path fill-rule="evenodd" clip-rule="evenodd" d="M177.267 103.035C276.274 160.196 402.873 126.274 460.035 27.2673C517.196 -71.7393 483.274 -198.339 384.267 -255.5C285.261 -312.661 158.661 -278.739 101.5 -179.733C44.3385 -80.7262 78.2607 45.873 177.267 103.035Z" fill="white" fill-opacity="0.08"/>
<path fill-rule="evenodd" clip-rule="evenodd" d="M-63.2279 155.294C32.1914 210.385 154.204 177.691 209.294 82.2721C264.385 -13.1473 231.691 -135.16 136.272 -190.25C40.8527 -245.34 -81.1596 -212.647 -136.25 -117.228C-191.34 -21.8086 -158.647 100.204 -63.2279 155.294Z" fill="white" fill-opacity="0.08"/>
<path fill-rule="evenodd" clip-rule="evenodd" d="M-80.6106 165.029C1.89487 212.663 107.394 184.395 155.029 101.889C202.663 19.3839 174.395 -86.1154 91.8894 -133.75C9.3839 -181.385 -96.1154 -153.116 -143.75 -70.6106C-191.385 11.8949 -163.116 117.394 -80.6106 165.029Z" fill="white" fill-opacity="0.08"/>
<path d="M62.4659 59.2072H43.5383V25.5752H62.4662L62.4659 59.2072Z" fill="#FF5F00"/>
<path d="M44.7364 42.3892C44.7364 35.567 47.9672 29.4897 52.9981 25.5732C49.1899 22.6043 44.4798 20.9929 39.6302 21C27.6839 21 18 30.5761 18 42.3892C18 54.2023 27.6839 63.7784 39.6302 63.7784C44.48 63.7855 49.1902 62.1742 52.9984 59.2052C47.9679 55.2894 44.7364 49.2118 44.7364 42.3892Z" fill="#EB001B"/>
<path d="M88.0002 42.3897C88.0002 54.2027 78.3163 63.7789 66.37 63.7789C61.5197 63.7859 56.809 62.1746 53 59.2057C58.0323 55.2892 61.2631 49.2123 61.2631 42.3897C61.2631 35.5671 58.0323 29.4902 53 25.5737C56.8089 22.6049 61.5195 20.9936 66.3696 21.0005C78.316 21.0005 88.0002 30.5766 88.0002 42.3897Z" fill="#F79E1B"/>
</g>
<defs>
<clipPath id="clip0_14_6302">
<rect width="327" height="176" rx="20" fill="white"/>
</clipPath>
</defs>
</svg>
