<svg width="26" height="26" viewBox="0 0 26 26" fill="none" xmlns="http://www.w3.org/2000/svg">
<path d="M3.24998 3.25L7.13824 7.13826M22.75 22.75L18.8621 18.8621M15.0311 20.3933C14.3733 20.5181 13.6945 20.5833 13.0005 20.5833C8.14969 20.5833 4.04353 17.3952 2.66309 13C3.03889 11.8035 3.6167 10.6964 4.35653 9.71878M10.7019 10.7019C11.29 10.1138 12.1025 9.75 13 9.75C14.7949 9.75 16.25 11.2051 16.25 13C16.25 13.8975 15.8862 14.71 15.2981 15.2981M10.7019 10.7019L15.2981 15.2981M10.7019 10.7019L7.13824 7.13826M15.2981 15.2981L7.13824 7.13826M15.2981 15.2981L18.8621 18.8621M7.13824 7.13826C8.82804 6.04884 10.8404 5.41667 13.0005 5.41667C17.8512 5.41667 21.9574 8.60482 23.3378 13C22.572 15.4383 20.9674 17.5051 18.8621 18.8621" stroke="#101010" stroke-width="2" stroke-linecap="round" stroke-linejoin="round"/>
</svg>
