<svg width="20" height="20" viewBox="0 0 20 20" fill="none" xmlns="http://www.w3.org/2000/svg">
<g clip-path="url(#clip0_11_171)">
<path d="M17.9167 2.08312C16.5781 0.756791 14.7699 0.0126953 12.8855 0.0126953C11.001 0.0126953 9.19283 0.756791 7.8542 2.08312C5.87337 4.06395 5.22337 8.67395 5.01254 11.2498C4.95456 11.9735 5.12506 12.6972 5.50004 13.3189L2.33337 16.4856C2.21578 16.2705 2.03755 16.0948 1.82085 15.9802C1.60414 15.8656 1.35853 15.8173 1.11457 15.8412C0.870611 15.8651 0.639069 15.9602 0.448753 16.1147C0.258436 16.2692 0.117746 16.4763 0.0441841 16.7101C-0.0293775 16.9439 -0.0325628 17.1942 0.0350245 17.4299C0.102612 17.6655 0.237988 17.8761 0.424312 18.0353C0.610635 18.1946 0.839681 18.2956 1.08295 18.3258C1.32623 18.3559 1.57299 18.3138 1.79254 18.2048C1.68351 18.4243 1.64144 18.6711 1.67157 18.9144C1.70169 19.1576 1.80268 19.3867 1.96197 19.573C2.12126 19.7593 2.33181 19.8947 2.56744 19.9623C2.80307 20.0299 3.05337 20.0267 3.28721 19.9531C3.52104 19.8796 3.72808 19.7389 3.88258 19.5486C4.03707 19.3582 4.1322 19.1267 4.15612 18.8827C4.18005 18.6388 4.13171 18.3932 4.01714 18.1765C3.90256 17.9598 3.72679 17.7815 3.5117 17.6639L6.67837 14.4973C7.29906 14.8759 8.02361 15.0486 8.74837 14.9906C11.32 14.7798 15.9292 14.1306 17.915 12.149C19.2428 10.8105 19.988 9.00168 19.9883 7.11638C19.9886 5.23107 19.244 3.422 17.9167 2.08312ZM16.7375 10.9681C15.5817 12.1223 12.5467 13.0048 8.61754 13.3273C8.35642 13.3499 8.09352 13.3151 7.84727 13.2254C7.60102 13.1356 7.37739 12.9931 7.19207 12.8078C7.00674 12.6224 6.8642 12.3988 6.77445 12.1525C6.68471 11.9063 6.64992 11.6434 6.67254 11.3823C6.99504 7.45312 7.87754 4.41645 9.0317 3.26228C9.53567 2.74728 10.1368 2.33734 10.8002 2.0562C11.4637 1.77505 12.1763 1.62828 12.8968 1.62438C13.6174 1.62048 14.3316 1.75952 14.998 2.03346C15.6645 2.30741 16.27 2.71081 16.7795 3.22032C17.289 3.72984 17.6924 4.33534 17.9664 5.0018C18.2403 5.66825 18.3793 6.38243 18.3754 7.10298C18.3715 7.82353 18.2248 8.53615 17.9436 9.1996C17.6625 9.86305 17.2525 10.4642 16.7375 10.9681Z" fill="#B42132"/>
</g>
<defs>
<clipPath id="clip0_11_171">
<rect width="20" height="20" fill="white"/>
</clipPath>
</defs>
</svg>
