<svg width="20" height="20" viewBox="0 0 20 20" fill="none" xmlns="http://www.w3.org/2000/svg">
<g clip-path="url(#clip0_11_178)">
<path d="M14.9999 4.16666C14.9999 3.94565 15.0877 3.73369 15.244 3.57741C15.4002 3.42113 15.6122 3.33333 15.8332 3.33333C16.0542 3.33333 16.2662 3.42113 16.4225 3.57741C16.5787 3.73369 16.6665 3.94565 16.6665 4.16666C16.6665 4.38768 16.5787 4.59964 16.4225 4.75592C16.2662 4.9122 16.0542 5 15.8332 5C15.6122 5 15.4002 4.9122 15.244 4.75592C15.0877 4.59964 14.9999 4.38768 14.9999 4.16666ZM0.224876 13.6458C0.396944 13.3005 0.662157 13.0102 0.990547 12.8078C1.31894 12.6053 1.69741 12.4987 2.08321 12.5H5.84904C5.86571 11.6158 5.90154 10.7742 5.97321 10H5.66654C5.33105 10.0067 4.99818 9.93955 4.69153 9.80328C4.38488 9.66701 4.11195 9.46496 3.89208 9.21146C3.67222 8.95796 3.5108 8.65921 3.41925 8.33637C3.32771 8.01353 3.3083 7.67451 3.36238 7.34333C3.45726 6.69475 3.78151 6.10168 4.27628 5.67174C4.77106 5.24179 5.40357 5.00346 6.05904 5H7.16654C8.66654 1.75916 13.3332 -1.90735e-06 16.6774 -1.90735e-06C17.1322 0.0015583 17.5819 0.09618 17.9988 0.278036C18.4156 0.459894 18.7909 0.72514 19.1014 1.05745C19.4119 1.38976 19.6512 1.7821 19.8044 2.21033C19.9576 2.63856 20.0216 3.09362 19.9924 3.5475C19.9479 5.76276 19.3794 7.93598 18.3332 9.88916V10.3333C18.3279 11.8319 17.7987 13.2814 16.8374 14.431C15.8761 15.5806 14.543 16.3579 13.069 16.6283C12.6959 16.6921 12.3132 16.6734 11.948 16.5736C11.5828 16.4739 11.2438 16.2954 10.9549 16.0508C10.6591 15.8023 10.4206 15.4927 10.2557 15.1433C10.0909 14.7939 10.0036 14.413 9.99988 14.0267C9.22488 14.0983 8.38238 14.1342 7.49988 14.1508L7.49988 17.9167C7.49988 18.3036 7.39214 18.6828 7.18873 19.0119C6.98533 19.3411 6.69429 19.607 6.34824 19.7801C6.00218 19.9531 5.61479 20.0263 5.22945 19.9916C4.84411 19.9568 4.47606 19.8155 4.16654 19.5833C3.4191 19.0395 2.88011 18.2565 2.63904 17.3642C1.74501 17.1229 0.960629 16.5826 0.416542 15.8333C0.184082 15.5227 0.0429707 15.1534 0.00910759 14.7669C-0.0247555 14.3804 0.0499725 13.9921 0.224876 13.6458ZM16.3457 12.0492C14.941 12.9854 13.3402 13.5866 11.6665 13.8067V14C11.6665 14.1482 11.699 14.2946 11.7616 14.4289C11.8242 14.5632 11.9155 14.6822 12.029 14.7775C12.1304 14.8663 12.2504 14.9314 12.3802 14.9678C12.5099 15.0043 12.6462 15.0113 12.779 14.9883C13.5771 14.8491 14.3254 14.505 14.9506 13.9898C15.5758 13.4746 16.0565 12.8059 16.3457 12.0492ZM12.6807 2.33333C12.9666 3.54504 13.5846 4.65308 14.4653 5.53305C15.346 6.41302 16.4546 7.0301 17.6665 7.315C18.041 6.0519 18.2647 4.74897 18.3332 3.43333C18.3478 3.19752 18.3122 2.9613 18.2286 2.74033C18.145 2.51935 18.0153 2.31868 17.8483 2.15162C17.6812 1.98456 17.4805 1.85493 17.2595 1.77132C17.0386 1.68771 16.8024 1.65203 16.5665 1.66666C15.2495 1.73459 13.9451 1.95838 12.6807 2.33333ZM7.50654 12.4933C12.7057 12.4042 15.539 11.44 17.0065 8.85833C15.6033 8.47468 14.3242 7.73193 13.2954 6.70332C12.2667 5.6747 11.5237 4.39573 11.1399 2.9925C8.55988 4.46166 7.59571 7.29416 7.50654 12.4933ZM6.19321 8.33333C6.2863 7.77142 6.4101 7.21503 6.56404 6.66666H6.05904C5.80383 6.66792 5.5575 6.76056 5.36472 6.92781C5.17194 7.09506 5.04546 7.32585 5.00821 7.57833C4.98842 7.67333 4.9909 7.77162 5.01546 7.8655C5.04001 7.95938 5.08598 8.04629 5.14975 8.11943C5.21353 8.19257 5.29338 8.24994 5.38304 8.28705C5.4727 8.32417 5.56973 8.34 5.66654 8.33333H6.19321ZM1.74988 14.8425C1.95213 15.118 2.20891 15.349 2.50423 15.521C2.79956 15.693 3.12712 15.8025 3.46654 15.8425C3.6376 15.8712 3.79545 15.9525 3.91809 16.0751C4.04073 16.1978 4.12205 16.3556 4.15071 16.5267C4.19065 16.8661 4.30004 17.1937 4.47209 17.4891C4.64413 17.7844 4.87513 18.0411 5.15071 18.2433C5.2136 18.2922 5.28917 18.322 5.36848 18.3292C5.44779 18.3365 5.52752 18.3208 5.59821 18.2842C5.66894 18.2525 5.72887 18.2008 5.77062 18.1355C5.81238 18.0702 5.83413 17.9942 5.83321 17.9167L5.83321 14.1667H2.08321C2.00598 14.1644 1.92977 14.1848 1.8639 14.2252C1.79805 14.2656 1.74539 14.3243 1.71238 14.3942C1.67507 14.4646 1.65877 14.5444 1.66541 14.6238C1.67206 14.7033 1.70138 14.7792 1.74988 14.8425Z" fill="#B42132"/>
</g>
<defs>
<clipPath id="clip0_11_178">
<rect width="20" height="20" fill="white" transform="matrix(-1 0 0 -1 20 20)"/>
</clipPath>
</defs>
</svg>
