<svg width="26" height="26" viewBox="0 0 26 26" fill="none" xmlns="http://www.w3.org/2000/svg">
<path d="M7.94488 4.13676L7.88124 3.33929L7.94488 4.13676ZM10.3073 3.15821L10.8262 3.7671L10.3073 3.15821ZM4.13688 7.94475L3.33941 7.88112L4.13688 7.94475ZM3.15833 10.3072L3.76722 10.8261L3.15833 10.3072ZM3.15833 15.6925L2.54944 16.2114L2.54944 16.2114L3.15833 15.6925ZM4.13688 18.0549L4.93434 17.9913L4.13688 18.0549ZM7.94488 21.8629L7.88124 22.6604H7.88124L7.94488 21.8629ZM10.3073 22.8415L9.78841 23.4504L9.78841 23.4504L10.3073 22.8415ZM15.6926 22.8415L16.2115 23.4504L16.2115 23.4504L15.6926 22.8415ZM18.055 21.8629L18.1187 22.6604H18.1187L18.055 21.8629ZM21.863 18.0549L22.6605 18.1186V18.1186L21.863 18.0549ZM22.8416 15.6925L23.4505 16.2114L23.4505 16.2114L22.8416 15.6925ZM22.8416 10.3072L23.4505 9.78829L23.4505 9.78829L22.8416 10.3072ZM21.863 7.94475L22.6605 7.88112V7.88112L21.863 7.94475ZM18.055 4.13676L17.9914 4.93422L18.055 4.13676ZM15.6926 3.15821L16.2115 2.54932L16.2115 2.54932L15.6926 3.15821ZM8.00851 4.93422C9.04715 4.85134 10.0332 4.44292 10.8262 3.7671L9.78841 2.54932C9.25164 3.00675 8.58425 3.28319 7.88124 3.33929L8.00851 4.93422ZM4.93434 8.00839C5.06526 6.36786 6.36798 5.06514 8.00851 4.93422L7.88124 3.33929C5.45749 3.53271 3.53283 5.45737 3.33941 7.88112L4.93434 8.00839ZM3.76722 10.8261C4.44304 10.033 4.85146 9.04703 4.93434 8.00839L3.33941 7.88112C3.28331 8.58412 3.00687 9.25152 2.54944 9.78829L3.76722 10.8261ZM3.76722 15.1736C2.69976 13.921 2.69976 12.0787 3.76722 10.8261L2.54944 9.78829C0.972355 11.6389 0.972355 14.3608 2.54944 16.2114L3.76722 15.1736ZM4.93434 17.9913C4.85146 16.9527 4.44304 15.9666 3.76722 15.1736L2.54944 16.2114C3.00687 16.7482 3.28331 17.4156 3.33941 18.1186L4.93434 17.9913ZM8.00851 21.0655C6.36798 20.9345 5.06526 19.6318 4.93434 17.9913L3.33941 18.1186C3.53283 20.5423 5.45749 22.467 7.88124 22.6604L8.00851 21.0655ZM10.8262 22.2326C10.0332 21.5568 9.04715 21.1483 8.00851 21.0655L7.88124 22.6604C8.58424 22.7165 9.25164 22.9929 9.78841 23.4504L10.8262 22.2326ZM15.1737 22.2326C13.9211 23.3 12.0788 23.3 10.8262 22.2326L9.78841 23.4504C11.639 25.0274 14.3609 25.0274 16.2115 23.4504L15.1737 22.2326ZM17.9914 21.0655C16.9528 21.1483 15.9668 21.5568 15.1737 22.2326L16.2115 23.4504C16.7483 22.9929 17.4157 22.7165 18.1187 22.6604L17.9914 21.0655ZM21.0656 17.9913C20.9347 19.6318 19.6319 20.9345 17.9914 21.0655L18.1187 22.6604C20.5424 22.467 22.4671 20.5423 22.6605 18.1186L21.0656 17.9913ZM22.2327 15.1736C21.5569 15.9666 21.1485 16.9527 21.0656 17.9913L22.6605 18.1186C22.7166 17.4156 22.9931 16.7482 23.4505 16.2114L22.2327 15.1736ZM22.2327 10.8261C23.3002 12.0787 23.3002 13.921 22.2327 15.1736L23.4505 16.2114C25.0276 14.3608 25.0276 11.6389 23.4505 9.78829L22.2327 10.8261ZM21.0656 8.00839C21.1485 9.04702 21.5569 10.033 22.2327 10.8261L23.4505 9.78829C22.9931 9.25152 22.7166 8.58412 22.6605 7.88112L21.0656 8.00839ZM17.9914 4.93422C19.6319 5.06514 20.9347 6.36786 21.0656 8.00839L22.6605 7.88112C22.4671 5.45737 20.5424 3.53271 18.1187 3.33929L17.9914 4.93422ZM15.1737 3.7671C15.9668 4.44292 16.9528 4.85134 17.9914 4.93422L18.1187 3.33929C17.4157 3.28319 16.7483 3.00675 16.2115 2.54932L15.1737 3.7671ZM16.2115 2.54932C14.3609 0.972233 11.639 0.972233 9.78841 2.54932L10.8262 3.7671C12.0788 2.69964 13.9211 2.69964 15.1737 3.7671L16.2115 2.54932Z" fill="#B42132"/>
<path fill-rule="evenodd" clip-rule="evenodd" d="M18.1595 8.22044C18.4802 8.51436 18.4802 8.9909 18.1595 9.28482L9.40162 17.3129C9.08098 17.6068 8.56112 17.6068 8.24048 17.3129C7.91984 17.019 7.91984 16.5424 8.24048 16.2485L16.9984 8.22044C17.319 7.92652 17.8389 7.92652 18.1595 8.22044ZM8.54737 9.75614C8.54737 9.06336 9.16003 8.50175 9.91579 8.50175C10.6715 8.50175 11.2842 9.06336 11.2842 9.75614C11.2842 10.4489 10.6715 11.0105 9.91579 11.0105C9.16003 11.0105 8.54737 10.4489 8.54737 9.75614ZM15.1158 15.7772C15.1158 15.0844 15.7285 14.5228 16.4842 14.5228C17.24 14.5228 17.8526 15.0844 17.8526 15.7772C17.8526 16.47 17.24 17.0316 16.4842 17.0316C15.7285 17.0316 15.1158 16.47 15.1158 15.7772Z" fill="#B42132"/>
</svg>
