<svg width="50" height="31" viewBox="0 0 50 31" fill="none" xmlns="http://www.w3.org/2000/svg">
<path d="M31.7614 27.2909H18.2417V3.26807H31.7616L31.7614 27.2909Z" fill="#FF5F00"/>
<path d="M19.0974 15.278C19.0974 10.405 21.4051 6.06405 24.9986 3.26658C22.2785 1.14591 18.9142 -0.00504398 15.4502 1.6617e-05C6.91707 1.6617e-05 0 6.8401 0 15.278C0 23.7159 6.91707 30.556 15.4502 30.556C18.9143 30.5611 22.2787 29.4101 24.9989 27.2894C21.4056 24.4924 19.0974 20.1513 19.0974 15.278Z" fill="#EB001B"/>
<path d="M49.9999 15.2785C49.9999 23.7164 43.0828 30.5565 34.5497 30.5565C31.0853 30.5615 27.7204 29.4106 24.9998 27.2899C28.5943 24.4924 30.902 20.1518 30.902 15.2785C30.902 10.4052 28.5943 6.06454 24.9998 3.26707C27.7204 1.14647 31.0851 -0.004467 34.5495 0.000504319C43.0826 0.000504319 49.9999 6.84059 49.9999 15.2785Z" fill="#F79E1B"/>
</svg>
