<svg width="20" height="20" viewBox="0 0 20 20" fill="none" xmlns="http://www.w3.org/2000/svg">
<g clip-path="url(#clip0_11_185)">
<path d="M11.6661 3.33339C11.6661 3.11238 11.7539 2.90042 11.9102 2.74414C12.0665 2.58786 12.2785 2.50006 12.4995 2.50006C12.7205 2.50006 12.9324 2.58786 13.0887 2.74414C13.245 2.90042 13.3328 3.11238 13.3328 3.33339C13.3328 3.55441 13.245 3.76637 13.0887 3.92265C12.9324 4.07893 12.7205 4.16673 12.4995 4.16673C12.2785 4.16673 12.0665 4.07893 11.9102 3.92265C11.7539 3.76637 11.6661 3.55441 11.6661 3.33339ZM19.9995 17.5001C19.9995 18.1631 19.7361 18.799 19.2672 19.2678C18.7984 19.7367 18.1625 20.0001 17.4995 20.0001H9.99947C4.52197 20.1309 -0.133035 15.2434 -0.000534974 9.81256C0.101725 7.15746 1.23543 4.64692 3.1596 2.81456C5.08378 0.982197 7.64671 -0.0275076 10.3036 6.17931e-05L19.1661 0.0192285C19.3871 0.0192285 19.5991 0.107026 19.7554 0.263306C19.9117 0.419586 19.9995 0.631548 19.9995 0.852562C19.9995 1.07358 19.9117 1.28554 19.7554 1.44182C19.5991 1.5981 19.3871 1.6859 19.1661 1.6859H18.2786C18.0886 3.32836 17.2866 4.8389 16.0325 5.91645C14.7784 6.994 13.1643 7.55944 11.512 7.50006C10.3118 7.50052 9.1413 7.87255 8.16113 8.56506C8.40893 8.78757 8.70039 8.956 9.0169 9.05959C9.33342 9.16318 9.66806 9.19967 9.99947 9.16673C10.2205 9.16673 10.4324 9.25453 10.5887 9.41081C10.745 9.56709 10.8328 9.77905 10.8328 10.0001C10.8328 10.2211 10.745 10.433 10.5887 10.5893C10.4324 10.7456 10.2205 10.8334 9.99947 10.8334C9.44136 10.8725 8.88132 10.7925 8.3565 10.5987C7.83167 10.4049 7.35404 10.1017 6.9553 9.70923C6.50958 10.2742 6.18429 10.9245 5.99947 11.6201C6.30515 11.9219 6.67079 12.1561 7.07273 12.3077C7.47466 12.4593 7.90394 12.5248 8.3328 12.5001C8.55381 12.5001 8.76577 12.5879 8.92206 12.7441C9.07833 12.9004 9.16613 13.1124 9.16613 13.3334C9.0303 14.8917 6.4828 13.8959 5.8803 13.5892C6.04681 14.897 6.68342 16.0996 7.67137 16.9725C8.65932 17.8455 9.93111 18.3292 11.2495 18.3334C12.3403 17.4809 15.7845 15.0001 17.4995 15.0001C18.1625 15.0001 18.7984 15.2635 19.2672 15.7323C19.7361 16.2011 19.9995 16.837 19.9995 17.5001ZM9.16613 3.75006C9.17281 4.05839 9.24552 4.3617 9.37934 4.63956C9.51317 4.91741 9.70501 5.16334 9.94193 5.36077C10.1788 5.55821 10.4553 5.70255 10.7528 5.78408C11.0502 5.86561 11.3617 5.88242 11.6661 5.83339C12.845 5.83193 13.9856 5.41472 14.8873 4.65518C15.7889 3.89563 16.3937 2.84243 16.5953 1.68089L11.2295 1.66673C10.6804 1.672 10.1556 1.89382 9.76924 2.28395C9.38285 2.67408 9.16611 3.20097 9.16613 3.75006ZM3.74947 4.59256C3.84868 5.35122 4.20082 6.05426 4.74897 6.58805C5.29713 7.12184 6.00927 7.45519 6.7703 7.53423C7.32988 7.07408 7.95334 6.69765 8.62113 6.41673C8.04616 5.84948 7.67075 5.11099 7.55129 4.31218C7.43183 3.51338 7.57477 2.69737 7.95863 1.98673C6.33399 2.43205 4.87243 3.33688 3.74947 4.59256ZM5.44863 16.9851C4.52104 15.6758 4.07525 14.0857 4.18697 12.4851C3.42941 12.5787 2.66054 12.4733 1.95613 12.1792C2.493 14.1546 3.73561 15.8645 5.44863 16.9851ZM5.44863 8.94423C4.18085 8.49666 3.13966 7.5689 2.54947 6.36089C1.99594 7.43451 1.69388 8.61997 1.66613 9.82756C1.85863 10.1926 2.56697 11.1442 4.5203 10.7559C4.7401 10.1096 5.05373 9.49923 5.45113 8.94423H5.44863ZM18.3328 17.5001C17.9995 15.6667 15.877 17.3059 14.2078 18.3334H17.4995C17.7205 18.3334 17.9324 18.2456 18.0887 18.0893C18.245 17.933 18.3328 17.7211 18.3328 17.5001Z" fill="#B42132"/>
</g>
<defs>
<clipPath id="clip0_11_185">
<rect width="20" height="20" fill="white"/>
</clipPath>
</defs>
</svg>
