<svg width="41" height="17" viewBox="0 0 41 17" fill="none" xmlns="http://www.w3.org/2000/svg">
<path d="M21.6755 15.9507H17.5956L20.1455 0.280013H24.2258L21.6755 15.9507ZM14.1633 0.280013L10.2737 11.0584L9.81347 8.73743L9.81388 8.73827L8.44106 1.69098C8.44106 1.69098 8.27507 0.280013 6.5057 0.280013H0.0754528L0 0.545355C0 0.545355 1.96638 0.954476 4.26769 2.33652L7.81229 15.9511H12.0632L18.5542 0.280013H14.1633ZM46.2538 15.9507H50L46.7337 0.279594H43.4541C41.9396 0.279594 41.5707 1.44744 41.5707 1.44744L35.4858 15.9507H39.7388L40.5894 13.623H45.7759L46.2538 15.9507ZM41.7643 10.4075L43.908 4.54309L45.114 10.4075H41.7643ZM35.8048 4.04846L36.3871 0.683266C36.3871 0.683266 34.5905 0 32.7176 0C30.6929 0 25.8849 0.884893 25.8849 5.1878C25.8849 9.23626 31.5279 9.28656 31.5279 11.4131C31.5279 13.5396 26.4663 13.1585 24.7959 11.8176L24.1893 15.3362C24.1893 15.3362 26.0111 16.2211 28.7944 16.2211C31.5786 16.2211 35.7788 14.7795 35.7788 10.856C35.7788 6.78153 30.0851 6.40217 30.0851 4.6307C30.0855 2.85882 34.0589 3.08644 35.8048 4.04846Z" fill="#2566AF"/>
</svg>
